<svg width="816" height="282" viewBox="0 0 816 282" fill="none" xmlns="http://www.w3.org/2000/svg">
<path d="M40.8885 108.536C34.3178 108.536 28.3445 107.213 22.9685 104.568C17.5925 101.923 13.3258 97.9547 10.1685 92.664C7.01117 87.3733 5.4325 80.632 5.4325 72.44V17.4H22.7125V72.568C22.7125 77.0053 23.4378 80.76 24.8885 83.832C26.3392 86.8187 28.4725 89.0373 31.2885 90.488C34.1045 91.9387 37.4325 92.664 41.2725 92.664C45.1978 92.664 48.5258 91.9387 51.2565 90.488C53.9872 89.0373 56.0778 86.8187 57.5285 83.832C59.0645 80.76 59.8325 77.0053 59.8325 72.568V17.4H77.1125V72.44C77.1125 80.632 75.4485 87.3733 72.1205 92.664C68.8778 97.9547 64.5258 101.923 59.0645 104.568C53.6032 107.213 47.5445 108.536 40.8885 108.536ZM86.2115 107L114.372 61.56L85.8275 17.4H105.796L125.124 47.992H125.636L143.428 17.4H163.012L134.98 62.328L163.78 107H143.812L124.356 75.896H123.844L105.796 107H86.2115ZM217.439 107L196.703 17.4H215.007L230.879 96.12H231.519L249.311 17.4H270.047L288.863 96.12H289.375L304.351 17.4H322.655L302.175 107H276.703L259.807 36.088H259.295L242.783 107H217.439ZM317.953 107L346.369 17.4H374.657L402.945 107H384.641L360.833 27.512H360.321L336.001 107H317.953ZM332.417 81.272L336.897 67.832H382.593L387.073 81.272H332.417ZM443.683 108.536C437.197 108.536 431.395 107.427 426.275 105.208C421.24 102.989 417.272 99.7467 414.371 95.48C411.469 91.2133 409.933 86.0507 409.763 79.992H428.067C428.152 82.6373 428.792 85.0267 429.987 87.16C431.267 89.2933 433.059 91 435.363 92.28C437.667 93.4747 440.44 94.072 443.683 94.072C446.328 94.072 448.675 93.688 450.723 92.92C452.771 92.0667 454.349 90.872 455.459 89.336C456.653 87.7147 457.251 85.7093 457.251 83.32C457.251 80.76 456.611 78.6267 455.331 76.92C454.136 75.2133 452.429 73.7627 450.211 72.568C447.992 71.288 445.475 70.1787 442.659 69.24C439.928 68.216 437.069 67.192 434.083 66.168C426.829 63.6933 421.283 60.4933 417.443 56.568C413.688 52.6427 411.811 47.48 411.811 41.08C411.811 35.8747 413.091 31.3947 415.651 27.64C418.211 23.8853 421.795 20.984 426.403 18.936C431.011 16.888 436.259 15.864 442.147 15.864C448.205 15.864 453.539 16.9307 458.147 19.064C462.755 21.112 466.381 24.0987 469.027 28.024C471.672 31.9493 473.08 36.5573 473.251 41.848H454.691C454.605 39.544 454.008 37.5387 452.899 35.832C451.875 34.1253 450.381 32.76 448.419 31.736C446.541 30.712 444.323 30.2 441.763 30.2C439.544 30.1147 437.496 30.456 435.619 31.224C433.827 31.9067 432.419 32.9733 431.395 34.424C430.371 35.7893 429.859 37.624 429.859 39.928C429.859 42.0613 430.328 43.8533 431.267 45.304C432.291 46.7547 433.699 48.0347 435.491 49.144C437.368 50.168 439.544 51.192 442.019 52.216C444.579 53.1547 447.437 54.1787 450.595 55.288C455.117 56.824 459.256 58.6587 463.011 60.792C466.765 62.84 469.752 65.528 471.971 68.856C474.275 72.184 475.427 76.4933 475.427 81.784C475.427 86.5627 474.189 91 471.715 95.096C469.325 99.1067 465.784 102.349 461.091 104.824C456.397 107.299 450.595 108.536 443.683 108.536ZM572.521 107V17.4H589.801V107H572.521ZM516.073 107V17.4H533.353V107H516.073ZM531.049 68.216V54.264H575.465V68.216H531.049ZM604.323 107V17.4H663.331V31.352H621.603V54.776H659.491V68.216H621.603V93.048H663.331V107H604.323ZM675.948 107V17.4H709.484C716.652 17.4 722.582 18.6373 727.276 21.112C732.054 23.5867 735.596 26.9147 737.9 31.096C740.204 35.192 741.356 39.7573 741.356 44.792C741.356 49.5707 740.204 54.0507 737.9 58.232C735.681 62.328 732.182 65.656 727.404 68.216C722.71 70.6907 716.652 71.928 709.228 71.928H693.228V107H675.948ZM722.412 107L703.979 67.576H722.668L742.124 107H722.412ZM693.228 59.384H708.332C713.622 59.384 717.505 58.104 719.98 55.544C722.454 52.984 723.692 49.6133 723.692 45.432C723.692 41.2507 722.454 37.9653 719.98 35.576C717.505 33.1013 713.622 31.864 708.332 31.864H693.228V59.384ZM752.823 107V17.4H811.831V31.352H770.103V54.776H807.991V68.216H770.103V93.048H811.831V107H752.823Z" fill="black"/>
<path d="M157.365 202L168.837 168.4H175.077L186.357 202H182.085L172.053 171.376H171.861L161.589 202H157.365ZM163.029 191.488L164.181 188.224H179.397L180.549 191.488H163.029ZM209.259 202.576C206.155 202.576 203.451 201.856 201.147 200.416C198.843 198.944 197.051 196.912 195.771 194.32C194.523 191.728 193.899 188.704 193.899 185.248C193.899 181.824 194.555 178.8 195.867 176.176C197.211 173.552 199.099 171.504 201.531 170.032C203.995 168.56 206.891 167.824 210.219 167.824C213.995 167.824 217.147 168.736 219.675 170.56C222.203 172.352 223.819 174.864 224.523 178.096H219.867C219.419 176.08 218.363 174.48 216.699 173.296C215.035 172.112 212.875 171.52 210.219 171.52C207.755 171.52 205.595 172.08 203.739 173.2C201.915 174.288 200.507 175.856 199.515 177.904C198.523 179.952 198.027 182.4 198.027 185.248C198.027 188.096 198.523 190.56 199.515 192.64C200.507 194.688 201.883 196.256 203.643 197.344C205.435 198.432 207.483 198.976 209.787 198.976C213.371 198.976 216.075 197.92 217.899 195.808C219.723 193.696 220.763 190.832 221.019 187.216H211.323V184.048H225.147V202H221.595L221.115 195.136H220.923C220.059 196.736 219.051 198.096 217.899 199.216C216.747 200.336 215.451 201.184 214.011 201.76C212.603 202.304 211.019 202.576 209.259 202.576ZM227.488 202V168.4H231.52V198.784H247.168V202H227.488ZM260.974 202.576C257.678 202.576 254.782 201.856 252.286 200.416C249.822 198.944 247.886 196.912 246.478 194.32C245.102 191.696 244.414 188.656 244.414 185.2C244.414 181.776 245.102 178.768 246.478 176.176C247.886 173.552 249.822 171.504 252.286 170.032C254.782 168.56 257.678 167.824 260.974 167.824C264.302 167.824 267.198 168.56 269.662 170.032C272.158 171.504 274.094 173.552 275.47 176.176C276.846 178.768 277.534 181.776 277.534 185.2C277.534 188.656 276.846 191.696 275.47 194.32C274.094 196.912 272.158 198.944 269.662 200.416C267.198 201.856 264.302 202.576 260.974 202.576ZM260.974 199.024C263.438 199.024 265.598 198.48 267.454 197.392C269.342 196.272 270.798 194.688 271.822 192.64C272.878 190.56 273.406 188.08 273.406 185.2C273.406 182.32 272.878 179.856 271.822 177.808C270.798 175.728 269.342 174.144 267.454 173.056C265.598 171.968 263.438 171.424 260.974 171.424C258.51 171.424 256.334 171.968 254.446 173.056C252.59 174.144 251.134 175.728 250.078 177.808C249.054 179.856 248.542 182.32 248.542 185.2C248.542 188.08 249.054 190.56 250.078 192.64C251.134 194.688 252.59 196.272 254.446 197.392C256.334 198.48 258.51 199.024 260.974 199.024ZM279.363 202V168.4H291.171C293.539 168.4 295.491 168.784 297.027 169.552C298.595 170.288 299.763 171.312 300.531 172.624C301.299 173.904 301.683 175.344 301.683 176.944C301.683 178.672 301.299 180.112 300.531 181.264C299.795 182.416 298.819 183.296 297.603 183.904C296.419 184.512 295.155 184.88 293.811 185.008L294.483 184.528C295.923 184.56 297.251 184.944 298.467 185.68C299.683 186.416 300.643 187.408 301.347 188.656C302.083 189.904 302.451 191.296 302.451 192.832C302.451 194.528 302.035 196.08 301.203 197.488C300.371 198.864 299.139 199.968 297.507 200.8C295.907 201.6 293.923 202 291.555 202H279.363ZM283.395 198.64H291.123C293.395 198.64 295.155 198.112 296.403 197.056C297.683 195.968 298.323 194.464 298.323 192.544C298.323 190.656 297.667 189.152 296.355 188.032C295.075 186.88 293.299 186.304 291.027 186.304H283.395V198.64ZM283.395 183.088H290.883C293.059 183.088 294.707 182.576 295.827 181.552C296.979 180.528 297.555 179.136 297.555 177.376C297.555 175.68 296.979 174.32 295.827 173.296C294.707 172.272 293.011 171.76 290.739 171.76H283.395V183.088ZM301.553 202L313.025 168.4H319.265L330.545 202H326.273L316.241 171.376H316.049L305.777 202H301.553ZM307.217 191.488L308.368 188.224H323.585L324.737 191.488H307.217ZM330.019 202V168.4H334.051V198.784H349.699V202H330.019ZM373.728 202.576C370.432 202.576 367.584 201.856 365.184 200.416C362.784 198.944 360.928 196.912 359.616 194.32C358.336 191.696 357.696 188.656 357.696 185.2C357.696 181.744 358.336 178.72 359.616 176.128C360.928 173.504 362.784 171.472 365.184 170.032C367.584 168.56 370.432 167.824 373.728 167.824C377.6 167.824 380.736 168.736 383.136 170.56C385.536 172.384 387.072 174.96 387.744 178.288H383.28C382.768 176.208 381.728 174.544 380.16 173.296C378.592 172.048 376.448 171.424 373.728 171.424C371.328 171.424 369.232 171.984 367.44 173.104C365.648 174.192 364.256 175.776 363.264 177.856C362.304 179.904 361.824 182.352 361.824 185.2C361.824 188.048 362.304 190.512 363.264 192.592C364.256 194.64 365.648 196.224 367.44 197.344C369.232 198.432 371.328 198.976 373.728 198.976C376.448 198.976 378.608 198.368 380.208 197.152C381.84 195.904 382.912 194.272 383.424 192.256H387.744C387.072 195.488 385.536 198.016 383.136 199.84C380.736 201.664 377.6 202.576 373.728 202.576ZM405.678 202.576C402.382 202.576 399.486 201.856 396.99 200.416C394.526 198.944 392.59 196.912 391.182 194.32C389.806 191.696 389.118 188.656 389.118 185.2C389.118 181.776 389.806 178.768 391.182 176.176C392.59 173.552 394.526 171.504 396.99 170.032C399.486 168.56 402.382 167.824 405.678 167.824C409.006 167.824 411.902 168.56 414.366 170.032C416.862 171.504 418.798 173.552 420.174 176.176C421.55 178.768 422.238 181.776 422.238 185.2C422.238 188.656 421.55 191.696 420.174 194.32C418.798 196.912 416.862 198.944 414.366 200.416C411.902 201.856 409.006 202.576 405.678 202.576ZM405.678 199.024C408.142 199.024 410.302 198.48 412.158 197.392C414.046 196.272 415.502 194.688 416.526 192.64C417.582 190.56 418.11 188.08 418.11 185.2C418.11 182.32 417.582 179.856 416.526 177.808C415.502 175.728 414.046 174.144 412.158 173.056C410.302 171.968 408.142 171.424 405.678 171.424C403.214 171.424 401.038 171.968 399.15 173.056C397.294 174.144 395.838 175.728 394.782 177.808C393.758 179.856 393.246 182.32 393.246 185.2C393.246 188.08 393.758 190.56 394.782 192.64C395.838 194.688 397.294 196.272 399.15 197.392C401.038 198.48 403.214 199.024 405.678 199.024ZM424.066 202V168.4H430.018L440.77 193.84H440.962L451.666 168.4H457.618V202H453.586V174.496H453.394L443.698 197.2H438.034L428.29 174.496H428.098V202H424.066ZM459.941 202V168.4H465.893L476.645 193.84H476.837L487.541 168.4H493.493V202H489.461V174.496H489.269L479.573 197.2H473.909L464.165 174.496H463.973V202H459.941ZM508.008 202.576C505.704 202.576 503.608 202.112 501.72 201.184C499.832 200.256 498.328 198.848 497.208 196.96C496.12 195.04 495.576 192.592 495.576 189.616V168.4H499.608V189.664C499.608 191.84 499.96 193.616 500.664 194.992C501.4 196.368 502.408 197.376 503.688 198.016C504.968 198.656 506.44 198.976 508.104 198.976C509.8 198.976 511.272 198.656 512.52 198.016C513.768 197.376 514.744 196.368 515.448 194.992C516.152 193.616 516.504 191.84 516.504 189.664V168.4H520.536V189.616C520.536 192.592 519.976 195.04 518.856 196.96C517.736 198.848 516.232 200.256 514.344 201.184C512.456 202.112 510.344 202.576 508.008 202.576ZM522.598 202V168.4H528.358L544.342 197.488H544.534V168.4H548.566V202H542.806L526.822 172.912H526.63V202H522.598ZM550.879 202V168.4H554.911V202H550.879ZM565.335 202V171.712H555.303V168.4H579.399V171.712H569.367V202H565.335ZM588.809 202V189.904L577.865 168.4H582.425L590.825 185.728H591.017L599.369 168.4H603.737L592.841 189.904V202H588.809ZM619.85 202V171.712H609.818V168.4H633.914V171.712H623.882V202H619.85ZM648.646 202.576C645.35 202.576 642.454 201.856 639.958 200.416C637.494 198.944 635.558 196.912 634.15 194.32C632.774 191.696 632.086 188.656 632.086 185.2C632.086 181.776 632.774 178.768 634.15 176.176C635.558 173.552 637.494 171.504 639.958 170.032C642.454 168.56 645.35 167.824 648.646 167.824C651.974 167.824 654.87 168.56 657.334 170.032C659.83 171.504 661.766 173.552 663.142 176.176C664.518 178.768 665.206 181.776 665.206 185.2C665.206 188.656 664.518 191.696 663.142 194.32C661.766 196.912 659.83 198.944 657.334 200.416C654.87 201.856 651.974 202.576 648.646 202.576ZM648.646 199.024C651.11 199.024 653.27 198.48 655.126 197.392C657.014 196.272 658.47 194.688 659.494 192.64C660.55 190.56 661.078 188.08 661.078 185.2C661.078 182.32 660.55 179.856 659.494 177.808C658.47 175.728 657.014 174.144 655.126 173.056C653.27 171.968 651.11 171.424 648.646 171.424C646.182 171.424 644.006 171.968 642.118 173.056C640.262 174.144 638.806 175.728 637.75 177.808C636.726 179.856 636.214 182.32 636.214 185.2C636.214 188.08 636.726 190.56 637.75 192.64C638.806 194.688 640.262 196.272 642.118 197.392C644.006 198.48 646.182 199.024 648.646 199.024ZM181.055 266.576C178.591 266.576 176.447 266.128 174.623 265.232C172.799 264.336 171.391 263.088 170.399 261.488C169.407 259.888 168.911 258.032 168.911 255.92H173.135C173.135 257.232 173.423 258.448 173.999 259.568C174.575 260.656 175.455 261.536 176.639 262.208C177.823 262.848 179.311 263.168 181.103 263.168C182.543 263.168 183.807 262.96 184.895 262.544C185.983 262.128 186.831 261.504 187.439 260.672C188.079 259.84 188.399 258.8 188.399 257.552C188.399 256.304 188.111 255.28 187.535 254.48C186.991 253.648 186.239 252.96 185.279 252.416C184.319 251.872 183.247 251.408 182.063 251.024C180.911 250.608 179.727 250.192 178.511 249.776C175.599 248.752 173.455 247.52 172.079 246.08C170.735 244.608 170.063 242.8 170.063 240.656C170.063 238.96 170.479 237.456 171.311 236.144C172.175 234.8 173.391 233.744 174.959 232.976C176.559 232.208 178.447 231.824 180.623 231.824C182.767 231.824 184.623 232.224 186.191 233.024C187.791 233.824 189.039 234.928 189.935 236.336C190.831 237.712 191.279 239.312 191.279 241.136H187.055C187.055 239.952 186.799 238.912 186.287 238.016C185.775 237.12 185.023 236.416 184.031 235.904C183.039 235.36 181.791 235.088 180.287 235.088C179.103 235.088 178.031 235.264 177.071 235.616C176.143 235.968 175.407 236.528 174.863 237.296C174.351 238.064 174.095 239.056 174.095 240.272C174.095 241.296 174.303 242.144 174.719 242.816C175.135 243.488 175.743 244.08 176.543 244.592C177.375 245.072 178.383 245.552 179.567 246.032C180.783 246.48 182.175 246.992 183.743 247.568C185.375 248.144 186.831 248.832 188.111 249.632C189.423 250.4 190.447 251.376 191.183 252.56C191.951 253.744 192.335 255.248 192.335 257.072C192.335 258.704 191.919 260.256 191.087 261.728C190.255 263.168 189.007 264.336 187.343 265.232C185.679 266.128 183.583 266.576 181.055 266.576ZM215.155 266V232.4H219.187V266H215.155ZM193.699 266V232.4H197.731V266H193.699ZM196.963 250.544V247.232H216.163V250.544H196.963ZM219.592 266L231.064 232.4H237.304L248.584 266H244.312L234.28 235.376H234.088L223.816 266H219.592ZM225.256 255.488L226.408 252.224H241.624L242.776 255.488H225.256ZM248.058 266V232.4H259.098C261.722 232.4 263.882 232.832 265.578 233.696C267.274 234.56 268.522 235.728 269.322 237.2C270.154 238.672 270.57 240.336 270.57 242.192C270.57 244.016 270.17 245.664 269.37 247.136C268.57 248.608 267.322 249.792 265.626 250.688C263.93 251.552 261.754 251.984 259.098 251.984H252.09V266H248.058ZM252.09 248.576H259.002C261.658 248.576 263.562 248 264.714 246.848C265.866 245.696 266.442 244.144 266.442 242.192C266.442 240.144 265.866 238.56 264.714 237.44C263.562 236.32 261.658 235.76 259.002 235.76H252.09V248.576ZM271.699 266V232.4H292.483V235.712H275.731V247.424H291.043V250.688H275.731V262.688H292.483V266H271.699ZM309.795 266V235.712H299.763V232.4H323.859V235.712H313.827V266H309.795ZM345.702 266V232.4H349.734V266H345.702ZM324.246 266V232.4H328.278V266H324.246ZM327.51 250.544V247.232H346.71V250.544H327.51ZM352.058 266V232.4H372.842V235.712H356.09V247.424H371.402V250.688H356.09V262.688H372.842V266H352.058ZM389.652 266V232.4H410.1V235.712H393.684V247.52H407.652V250.784H393.684V266H389.652ZM423.188 266.576C420.884 266.576 418.788 266.112 416.9 265.184C415.012 264.256 413.508 262.848 412.388 260.96C411.3 259.04 410.756 256.592 410.756 253.616V232.4H414.788V253.664C414.788 255.84 415.14 257.616 415.844 258.992C416.58 260.368 417.588 261.376 418.868 262.016C420.148 262.656 421.62 262.976 423.284 262.976C424.98 262.976 426.452 262.656 427.7 262.016C428.948 261.376 429.924 260.368 430.628 258.992C431.332 257.616 431.684 255.84 431.684 253.664V232.4H435.716V253.616C435.716 256.592 435.156 259.04 434.036 260.96C432.916 262.848 431.412 264.256 429.524 265.184C427.636 266.112 425.524 266.576 423.188 266.576ZM445.889 266V235.712H435.857V232.4H459.953V235.712H449.921V266H445.889ZM472.532 266.576C470.228 266.576 468.132 266.112 466.244 265.184C464.356 264.256 462.852 262.848 461.732 260.96C460.644 259.04 460.1 256.592 460.1 253.616V232.4H464.132V253.664C464.132 255.84 464.484 257.616 465.188 258.992C465.924 260.368 466.932 261.376 468.212 262.016C469.492 262.656 470.964 262.976 472.628 262.976C474.324 262.976 475.796 262.656 477.044 262.016C478.292 261.376 479.268 260.368 479.972 258.992C480.676 257.616 481.028 255.84 481.028 253.664V232.4H485.06V253.616C485.06 256.592 484.5 259.04 483.38 260.96C482.26 262.848 480.756 264.256 478.868 265.184C476.98 266.112 474.868 266.576 472.532 266.576ZM487.121 266V232.4H497.969C500.593 232.4 502.737 232.848 504.401 233.744C506.065 234.608 507.297 235.776 508.097 237.248C508.897 238.72 509.297 240.384 509.297 242.24C509.297 244.032 508.881 245.68 508.049 247.184C507.249 248.688 506.001 249.888 504.305 250.784C502.609 251.68 500.433 252.128 497.777 252.128H491.153V266H487.121ZM504.881 266L497.489 250.976H502.001L509.633 266H504.881ZM491.153 248.96H497.681C500.241 248.96 502.113 248.336 503.297 247.088C504.513 245.84 505.121 244.24 505.121 242.288C505.121 240.304 504.529 238.736 503.345 237.584C502.193 236.4 500.289 235.808 497.633 235.808H491.153V248.96ZM510.527 266V232.4H531.311V235.712H514.559V247.424H529.871V250.688H514.559V262.688H531.311V266H510.527ZM556.592 266.576C553.296 266.576 550.4 265.856 547.904 264.416C545.44 262.944 543.504 260.912 542.096 258.32C540.72 255.696 540.032 252.656 540.032 249.2C540.032 245.776 540.72 242.768 542.096 240.176C543.504 237.552 545.44 235.504 547.904 234.032C550.4 232.56 553.296 231.824 556.592 231.824C559.92 231.824 562.816 232.56 565.28 234.032C567.776 235.504 569.712 237.552 571.088 240.176C572.464 242.768 573.152 245.776 573.152 249.2C573.152 252.656 572.464 255.696 571.088 258.32C569.712 260.912 567.776 262.944 565.28 264.416C562.816 265.856 559.92 266.576 556.592 266.576ZM556.592 263.024C559.056 263.024 561.216 262.48 563.072 261.392C564.96 260.272 566.416 258.688 567.44 256.64C568.496 254.56 569.024 252.08 569.024 249.2C569.024 246.32 568.496 243.856 567.44 241.808C566.416 239.728 564.96 238.144 563.072 237.056C561.216 235.968 559.056 235.424 556.592 235.424C554.128 235.424 551.952 235.968 550.064 237.056C548.208 238.144 546.752 239.728 545.696 241.808C544.672 243.856 544.16 246.32 544.16 249.2C544.16 252.08 544.672 254.56 545.696 256.64C546.752 258.688 548.208 260.272 550.064 261.392C551.952 262.48 554.128 263.024 556.592 263.024ZM574.98 266V232.4H595.428V235.712H579.012V247.52H592.98V250.784H579.012V266H574.98ZM616.125 266.576C613.821 266.576 611.725 266.112 609.837 265.184C607.949 264.256 606.445 262.848 605.325 260.96C604.237 259.04 603.693 256.592 603.693 253.616V232.4H607.725V253.664C607.725 255.84 608.077 257.616 608.781 258.992C609.517 260.368 610.525 261.376 611.805 262.016C613.085 262.656 614.557 262.976 616.221 262.976C617.917 262.976 619.389 262.656 620.637 262.016C621.885 261.376 622.861 260.368 623.565 258.992C624.269 257.616 624.621 255.84 624.621 253.664V232.4H628.653V253.616C628.653 256.592 628.093 259.04 626.973 260.96C625.853 262.848 624.349 264.256 622.461 265.184C620.573 266.112 618.461 266.576 616.125 266.576ZM628.795 266L639.067 249.056L628.795 232.4H633.355L641.515 246.128H641.707L649.483 232.4H653.995L643.723 249.2L654.043 266H649.483L641.419 252.176H641.227L633.355 266H628.795Z" fill="black"/>
</svg>
